PathFileType	4	(X/Y/Z)	 s07c0203.trc
DataRate	CameraRate	NumFrames	NumMarkers	Units	OrigDataRate	OrigDataStartFrame	OrigNumFrames
200	200	5	48	mm	200	1001	2000
Frame#	Time	racr			lacr			c7			jug			rlel			rdr			llel			ldr			s2			lic			ric			lasi			rasi			rpsi			lpsi			rgt			lgt			rth1			rth2			rth3			rth4			rlfc			rmfc			rsh1			rsh2			rsh3			rsh4			rlmal			rcal			rtoe			rmt5			lth1			lth2			lth4			lth3			llfc			lmfc			lsh1			lsh2			lsh3			lsh4			llmal			lcal			ltoe			lmt5			SBIKE			LBIKE			RBIKE			
		X1	Y1	Z1	X2	Y2	Z2	X3	Y3	Z3	X4	Y4	Z4	X5	Y5	Z5	X6	Y6	Z6	X7	Y7	Z7	X8	Y8	Z8	X9	Y9	Z9	X10	Y10	Z10	X11	Y11	Z11	X12	Y12	Z12	X13	Y13	Z13	X14	Y14	Z14	X15	Y15	Z15	X16	Y16	Z16	X17	Y17	Z17	X18	Y18	Z18	X19	Y19	Z19	X20	Y20	Z20	X21	Y21	Z21	X22	Y22	Z22	X23	Y23	Z23	X24	Y24	Z24	X25	Y25	Z25	X26	Y26	Z26	X27	Y27	Z27	X28	Y28	Z28	X29	Y29	Z29	X30	Y30	Z30	X31	Y31	Z31	X32	Y32	Z32	X33	Y33	Z33	X34	Y34	Z34	X35	Y35	Z35	X36	Y36	Z36	X37	Y37	Z37	X38	Y38	Z38	X39	Y39	Z39	X40	Y40	Z40	X41	Y41	Z41	X42	Y42	Z42	X43	Y43	Z43	X44	Y44	Z44	X45	Y45	Z45	X46	Y46	Z46	X47	Y47	Z47	X48	Y48	Z48	
1001	5.0050	504.620413	1421.739408	-67.832671	482.244518	1423.901021	-352.392084	469.782732	1473.065072	-210.494076	413.109406	1327.767957	-212.569507	483.493127	1109.898096	109.066252	694.520683	953.132429	-31.217708	484.101083	1133.027280	-542.948791	700.314733	953.709898	-431.777745	-91.139201	1203.412383	-234.484508	61.831940	1277.774597	-365.624266	69.885712	1242.120531	-75.085268	97.819461	1203.063940	-342.405786	93.340563	1188.879992	-95.450225	-67.308053	1242.750389	-176.941911	-58.269536	1259.062932	-283.000416	16.996597	1102.022862	-47.065880	31.899575	1131.697142	-414.815252	107.918762	956.584125	-48.375030	159.937530	886.641189	-62.367829	173.278207	801.869471	-66.150562	189.236962	901.211469	-80.530738	220.780073	679.364498	-101.161611	193.894822	661.775478	-198.898070	185.558337	541.906257	-67.156812	189.195983	454.324841	-86.137420	153.263391	375.228887	-77.953506	200.383432	455.161229	-124.632412	122.762938	234.737267	-74.847469	62.946582	181.598813	-101.441316	351.948167	213.843260	-119.680294	282.720607	166.381747	-49.855758	134.713343	1073.180435	-417.447902	222.937066	1067.608809	-417.143072	234.529913	1099.992322	-405.553582	297.239242	1018.004575	-416.884885	448.132122	919.912466	-385.909871	440.115087	900.152230	-283.807095	343.098229	814.934879	-400.855024	295.367036	744.787937	-385.015742	215.690035	703.722347	-389.925143	303.245466	741.731865	-343.778772	112.017620	620.034654	-392.767257	38.192636	642.010623	-349.153541	210.679843	411.457420	-354.010487	140.972971	458.526012	-415.895182	-256.828730	965.919780	-231.394754	-75.515892	83.845047	-437.162482	-82.154470	79.867346	-39.446584	
1002	5.0100	506.775843	1419.202285	-71.867571	479.518288	1424.739016	-355.703749	469.481638	1471.541117	-212.929299	413.576184	1325.945313	-215.575278	484.212724	1109.999361	109.146802	694.381042	953.097328	-31.465749	482.779288	1131.871342	-542.399884	700.027833	953.329713	-430.931406	-91.085396	1202.221720	-232.888771	60.440271	1278.402341	-364.624804	71.718554	1239.546980	-73.735058	96.756909	1203.313381	-341.758001	94.383186	1186.677855	-94.491703	-66.795129	1241.096069	-174.496195	-58.909487	1258.466824	-280.718802	17.234449	1100.020911	-46.474757	31.169935	1132.489793	-414.339848	105.896004	953.773325	-46.930533	156.969664	883.128649	-60.475650	169.221500	798.176185	-63.663118	186.444763	897.203415	-78.766589	215.488159	674.929499	-99.264823	189.284973	657.543948	-198.031292	178.991585	537.871457	-65.940067	182.216591	450.204480	-85.010509	145.543565	371.373257	-77.185905	193.850457	451.085071	-123.752355	114.145591	230.950127	-74.807098	53.924453	178.666700	-101.474070	343.416569	207.306735	-120.237395	273.445007	160.822874	-49.894314	134.773719	1076.367274	-417.322070	223.218051	1073.304300	-417.716195	233.895771	1105.718643	-405.580040	298.629449	1025.371592	-417.547153	452.892214	930.862876	-385.479929	444.800406	911.727976	-283.316001	350.338945	824.087645	-401.900785	303.584404	753.684869	-385.923619	223.987013	711.480825	-390.458214	312.143628	749.030020	-344.203805	120.644077	625.498892	-393.202545	44.542038	648.998879	-353.479789	220.787180	417.493664	-353.671976	150.676958	463.939758	-415.991615	-256.693528	965.971941	-231.399840	-75.509798	83.846546	-437.169548	-82.111534	79.638069	-39.646886	
1003	5.0150	508.923662	1416.543296	-75.945709	476.770436	1425.202737	-358.954888	469.344504	1470.345039	-215.649994	413.086846	1324.885604	-218.864526	484.847340	1110.004428	109.172708	694.321664	953.058907	-31.689024	481.520350	1130.751513	-541.973602	699.724112	952.964762	-430.189303	-91.293063	1201.113048	-231.031328	58.593468	1278.562661	-362.682772	73.328509	1236.959449	-72.560110	95.576520	1203.390887	-341.070189	95.378630	1184.304125	-93.504236	-64.190219	1238.362733	-173.825339	-59.604429	1257.710215	-278.551257	17.366718	1097.906655	-45.722413	30.299603	1133.208173	-413.866966	104.005115	951.147408	-45.530314	154.300095	879.869442	-58.599164	165.589705	794.771721	-61.171340	183.893886	893.479640	-77.010319	210.825725	670.967795	-97.567047	186.395690	653.741042	-196.175523	173.122218	534.318085	-64.736757	175.527597	446.700630	-83.921037	137.987994	368.915845	-75.864206	187.282434	447.436618	-122.177568	105.405087	228.028960	-74.677023	44.617425	177.079890	-101.330444	334.449500	201.598423	-120.145353	263.769300	155.863131	-49.801879	134.471241	1079.366145	-416.968178	222.938900	1078.247643	-417.639839	232.920976	1111.086369	-405.455243	299.487789	1032.557861	-417.949992	458.729984	940.373576	-382.326535	449.328349	921.260416	-283.597190	357.114587	832.795427	-402.159665	311.275616	761.955510	-386.158571	231.960406	718.762266	-390.849493	318.265253	759.107474	-344.313991	128.641720	630.329761	-393.534443	52.179371	652.844048	-353.840089	231.224428	423.309013	-353.510655	160.758799	468.924548	-415.850530	-256.570660	965.986340	-231.451591	-75.498357	83.841098	-437.184033	-82.109534	79.653659	-39.634003	
1004	5.0200	510.984473	1413.765954	-80.041166	474.098892	1425.308691	-362.030796	468.778776	1468.805012	-218.224570	413.326625	1323.043925	-222.177427	485.541539	1109.876889	109.153930	694.314540	953.020588	-31.899100	480.288195	1129.465452	-541.558869	699.465354	952.577235	-429.634408	-91.663831	1199.946100	-229.138410	56.584931	1278.645938	-361.179939	74.798736	1234.136106	-71.366827	94.317116	1203.425796	-340.442247	96.116977	1182.023037	-92.646736	-64.576668	1237.359139	-171.002304	-60.398200	1256.866575	-276.399855	17.661163	1095.808807	-45.293812	29.210726	1133.849363	-413.401500	102.272561	948.622279	-44.180839	152.022685	876.782347	-56.729953	162.472232	791.602989	-58.784744	181.672969	890.233308	-74.930665	207.075607	667.492190	-96.036461	183.743767	650.582716	-195.007135	167.966271	531.421186	-63.824636	169.261428	443.728458	-83.094377	130.728424	365.811164	-75.933441	181.281016	444.336223	-121.282666	96.369097	225.953172	-74.610726	34.910094	175.243416	-101.438744	325.291110	196.492274	-119.791845	253.927808	151.557112	-49.785657	133.719261	1082.171506	-416.478381	222.124550	1083.034176	-417.743800	231.656489	1116.002475	-405.202731	299.761636	1039.015670	-418.174038	459.141959	951.545505	-385.931983	452.884175	930.892663	-283.199938	363.317848	840.981307	-402.036843	317.984062	769.568573	-385.852446	239.274825	725.340689	-391.341767	324.971632	766.815373	-344.256195	136.336345	634.488937	-393.741565	59.447718	655.796447	-354.232160	241.592339	428.681159	-352.998403	170.934651	473.368722	-415.583253	-256.514521	965.948839	-231.459711	-75.494639	83.826308	-437.173754	-82.116060	79.562256	-39.662152	
1005	5.0250	513.011859	1410.903857	-84.084264	471.503848	1425.039451	-364.929142	468.372991	1467.285660	-220.755205	413.104552	1321.463469	-225.372130	486.233172	1109.669926	109.216613	694.407771	952.995302	-32.028099	479.031671	1128.195334	-541.311300	699.288681	952.281394	-429.377033	-92.277518	1198.882673	-227.499410	54.575001	1278.741811	-359.549249	76.049241	1231.355492	-70.184138	92.735281	1203.354187	-339.778649	96.750248	1179.725356	-91.899248	-64.825994	1236.082408	-169.022515	-61.411257	1256.165255	-274.323532	17.634627	1093.583221	-44.755728	27.833169	1134.590046	-412.826904	100.808704	946.236281	-42.829070	150.141195	874.062169	-54.867977	159.949753	788.730689	-56.674970	179.946793	887.059082	-73.168486	204.287641	664.525080	-94.839463	181.819578	647.933251	-194.210601	163.464625	529.085424	-63.180520	163.442984	441.552660	-82.454272	123.727532	364.133612	-75.443969	175.679837	441.877668	-120.597085	87.429414	224.711978	-74.537202	25.034483	175.162640	-101.260783	316.140919	191.844424	-119.886111	243.921508	147.837265	-50.084519	132.656867	1084.848342	-415.782068	220.928447	1087.113148	-417.276639	229.989548	1120.463859	-404.710953	299.776603	1044.989007	-418.549981	461.295355	960.678036	-385.317499	455.464338	939.935704	-282.417382	368.780629	848.269597	-401.634459	323.973762	776.339252	-385.416526	246.040843	731.092084	-391.336269	330.780839	773.745617	-343.828130	143.957050	638.127215	-394.054821	66.378304	657.514116	-354.404350	252.276674	433.698711	-352.622868	181.040706	477.250686	-415.429343	-256.532969	965.927467	-231.469037	-75.513246	83.733598	-437.129348	-82.115458	79.549670	-39.661700	
